<?xml version="1.0" standalone="no"?>
      <svg xmlns="http://www.w3.org/2000/svg" class="icon" viewBox="0 0 1024 1024">
				<path d="M517.7856 359.68a136.0896 136.0896 0 1 1-272.128 0 136.0896 136.0896 0 0 1 272.128 0zM135.2704 723.0976a127.8976 127.8976 0 0 1 127.8976-127.8976h497.664a127.8976 127.8976 0 0 1 127.8976 127.8976v77.312h-133.12v-77.312a127.8976 127.8976 0 0 0-127.8976-127.8976H502.1184a127.8976 127.8976 0 0 1 127.6928 127.8976v77.312H135.168v-77.312zM612.5056 495.7696a136.0384 136.0384 0 1 0-66.56-254.7712 136.0384 136.0384 0 0 1 0 237.3632c19.6608 11.0592 42.3936 17.408 66.56 17.408z"/>
			</svg>
		