<?xml version="1.0" standalone="no"?>
      <svg xmlns="http://www.w3.org/2000/svg" class="icon" viewBox="0 0 1024 1024">
				<path d="M42.837333 524.245333c7.765333 100.949333 214.784 181.845333 469.12 181.845334 254.293333 0 461.354667-80.896 469.077334-181.845334h-95.658667l0.213333 0.426667a1.706667 1.706667 0 0 1-0.213333-0.426667h-10.965333c-12.586667 10.752-34.048 23.978667-66.56 36.992-70.869333 28.373333-175.488 48.042667-295.893334 48.042667-120.448 0-225.024-19.669333-295.936-48.042667-32.512-13.013333-53.973333-26.24-66.56-36.992h-10.922666a1.792 1.792 0 0 1-0.213334 0.426667s0-0.128 0.170667-0.426667H42.837333zM42.837333 814.592c7.765333 100.992 214.784 181.888 469.12 181.888 254.293333 0 461.354667-80.896 469.077334-181.888h-95.658667l0.213333 0.426667a1.706667 1.706667 0 0 1-0.213333-0.426667h-10.965333c-12.586667 10.752-34.048 24.021333-66.56 37.034667-70.869333 28.330667-175.488 48.042667-295.893334 48.042666-120.448 0-225.024-19.712-295.936-48.042666-32.512-13.013333-53.973333-26.282667-66.56-37.034667h-10.922666a1.792 1.792 0 0 1-0.213334 0.426667s0-0.128 0.170667-0.426667H42.837333z"/>
			</svg>
		