<?xml version="1.0" standalone="no"?>
      <svg xmlns="http://www.w3.org/2000/svg" class="icon" viewBox="0 0 1024 1024">
				<path d="M27.055158 502.137263c8.030316 104.394105 222.046316 187.984842 484.837053 187.984842s476.806737-83.590737 484.783157-187.984842H897.886316l0.215579 0.485053-0.269474-0.485053h-11.317895c-12.934737 11.156211-35.193263 24.791579-68.769684 38.265263-73.296842 29.318737-181.355789 49.690947-305.798737 49.690948-124.496842 0-232.555789-20.372211-305.852631-49.690948-33.576421-13.473684-55.781053-27.109053-68.769685-38.265263h-11.317894a1.778526 1.778526 0 0 1-0.215579 0.485053s0-0.161684 0.215579-0.485053H27.055158zM27.055158 802.277053c8.030316 104.340211 222.046316 187.984842 484.837053 187.984842s476.806737-83.644632 484.783157-187.984842H897.886316l0.215579 0.485052-0.269474-0.485052h-11.317895c-12.934737 11.156211-35.193263 24.791579-68.769684 38.265263-73.296842 29.318737-181.355789 49.637053-305.798737 49.637052-124.496842 0-232.555789-20.318316-305.852631-49.637052-33.576421-13.473684-55.781053-27.162947-68.769685-38.265263h-11.317894a1.778526 1.778526 0 0 1-0.215579 0.485052s0-0.161684 0.215579-0.485052H27.055158z"/>
			</svg>
		