<?xml version="1.0" standalone="no"?>
      <svg xmlns="http://www.w3.org/2000/svg" class="icon" viewBox="0 0 1024 1024">
				<path d="M815.616 450.56a303.7184 303.7184 0 0 1-481.1264 246.5792l98.9184-86.1696H191.4368a358.2976 358.2976 0 1 0 668.5696-245.7088h-56.5248c7.8848 27.136 12.1344 55.7056 12.1344 85.3504z m-607.4368 0c0 32.1536 5.0176 63.1296 14.2336 92.16h-56.832a358.2976 358.2976 0 0 1 670.208-245.7088h-61.7984a291.4816 291.4816 0 0 0-2.048-3.4304h-181.504l101.0176-87.9616A303.7184 303.7184 0 0 0 208.1792 450.56z"/>
			</svg>
		